# xmcd
#
# Track frame offsets: 
#        150
#        25415
#        51564
#        83519
#        107155
#        133916
#        152825
#        188272
#        212050
#        233815
#        265825
#
# Disc length: 3876 seconds
#
# Revision: 2
# Processed by: cddbd v1.5.2PL0 Copyright (c) Steve Scherf et al.
# Submitted via: ExactAudioCopy v0.99pb5
#
DISCID=920f220b
DTITLE=Joe Louis Walker - Ridin' High - Live
DYEAR=1991
DGENRE=Blues
TTITLE0=Ridin' High
TTITLE1=Bit By Bit (Little By Little)
TTITLE2=Alligator
TTITLE3=747
TTITLE4=Thin Line
TTITLE5=Don't Mess Up A Good Thing
TTITLE6=Prove Your Love
TTITLE7=Blue Guitar
TTITLE8=I Didn't Know
TTITLE9=Personal Baby
TTITLE10=One Time Around
EXTD=YEAR: 1991
EXTT0=
EXTT1=
EXTT2=
EXTT3=
EXTT4=
EXTT5=
EXTT6=
EXTT7=
EXTT8=
EXTT9=
EXTT10=
PLAYORDER=
